HIERARCHY
ROOT Hips
{
	OFFSET 0.000000 0.000000 0.000000
	CHANNELS 6 Xposition Yposition Zposition Zrotation Xrotation Yrotation
	JOINT Spine
	{
		OFFSET 0.000000 -0.000000 0.081436
		CHANNELS 6 Xposition Yposition Zposition Zrotation Xrotation Yrotation
		JOINT Spine1
		{
			OFFSET 0.000000 -0.000000 0.206037
			CHANNELS 6 Xposition Yposition Zposition Zrotation Xrotation Yrotation
			JOINT Neck
			{
				OFFSET 0.000000 -0.000000 0.206037
				CHANNELS 6 Xposition Yposition Zposition Zrotation Xrotation Yrotation
				JOINT Head
				{
					OFFSET 0.000000 -0.000000 0.109243
					CHANNELS 6 Xposition Yposition Zposition Zrotation Xrotation Yrotation
					End Site
					{
						OFFSET 0.000000 -0.000000 0.248279
					}
				}
			}
			JOINT LeftShoulder
			{
				OFFSET 0.039631 0.002820 0.186820
				CHANNELS 6 Xposition Yposition Zposition Zrotation Xrotation Yrotation
				JOINT LeftArm
				{
					OFFSET 0.111855 0.000000 0.000000
					CHANNELS 6 Xposition Yposition Zposition Zrotation Xrotation Yrotation
					JOINT LeftForeArm
					{
						OFFSET 0.340751 0.000000 0.000000
						CHANNELS 6 Xposition Yposition Zposition Zrotation Xrotation Yrotation
						JOINT LeftHand
						{
							OFFSET 0.213779 0.000000 0.000000
							CHANNELS 6 Xposition Yposition Zposition Zrotation Xrotation Yrotation
							End Site
							{
								OFFSET 0.148968 0.000000 0.000000
							}
						}
					}
				}
			}
			JOINT RightShoulder
			{
				OFFSET -0.039679 0.002820 0.186820
				CHANNELS 6 Xposition Yposition Zposition Zrotation Xrotation Yrotation
				JOINT RightArm
				{
					OFFSET -0.111855 0.000000 0.000000
					CHANNELS 6 Xposition Yposition Zposition Zrotation Xrotation Yrotation
					JOINT RightForeArm
					{
						OFFSET -0.340751 0.000000 0.000000
						CHANNELS 6 Xposition Yposition Zposition Zrotation Xrotation Yrotation
						JOINT RightHand
						{
							OFFSET -0.213779 0.000000 0.000000
							CHANNELS 6 Xposition Yposition Zposition Zrotation Xrotation Yrotation
							End Site
							{
								OFFSET -0.148968 0.000000 0.000000
							}
						}
					}
				}
			}
		}
	}
	JOINT LeftUpLeg
	{
		OFFSET 0.099312 0.000000 0.000000
		CHANNELS 6 Xposition Yposition Zposition Zrotation Xrotation Yrotation
		JOINT LeftLeg
		{
			OFFSET 0.000000 0.000000 -0.476468
			CHANNELS 6 Xposition Yposition Zposition Zrotation Xrotation Yrotation
			JOINT LeftFoot
			{
				OFFSET 0.000000 0.000000 -0.378939
				CHANNELS 6 Xposition Yposition Zposition Zrotation Xrotation Yrotation
				JOINT LeftToeBase
				{
					OFFSET 0.000000 -0.148968 -0.064553
					CHANNELS 6 Xposition Yposition Zposition Zrotation Xrotation Yrotation
					End Site
					{
						OFFSET 0.000000 -0.039725 -0.000000
					}
				}
			}
		}
	}
	JOINT RightUpLeg
	{
		OFFSET -0.099312 0.000000 0.000000
		CHANNELS 6 Xposition Yposition Zposition Zrotation Xrotation Yrotation
		JOINT RightLeg
		{
			OFFSET 0.000000 0.000000 -0.476468
			CHANNELS 6 Xposition Yposition Zposition Zrotation Xrotation Yrotation
			JOINT RightFoot
			{
				OFFSET 0.000000 0.000000 -0.378939
				CHANNELS 6 Xposition Yposition Zposition Zrotation Xrotation Yrotation
				JOINT RightToeBase
				{
					OFFSET 0.000000 -0.148968 -0.064553
					CHANNELS 6 Xposition Yposition Zposition Zrotation Xrotation Yrotation
					End Site
					{
						OFFSET 0.000000 -0.039725 -0.000000
					}
				}
			}
		}
	}
}
MOTION
Frames: 7
Frame Time: 0.041667
0.175598 0.267923 0.995144 -8.700008 0.422623 -5.338894 0.000000 -0.000000 0.081436 0.106764 -3.099288 3.950703 0.000000 -0.000000 0.206037 2.731981 -5.404174 -8.364636 0.000000 -0.000000 0.206037 2.613991 17.754856 -16.625227 -0.000000 -0.000000 0.109243 20.016807 3.585724 2.024927 0.039631 0.002820 0.186820 4.954051 12.753392 -2.661938 0.111855 0.000000 -0.000000 -36.581226 13.778010 72.289773 0.340751 0.000000 0.000000 -12.309093 0.376778 -3.490655 0.213779 -0.000000 0.000000 -0.307595 -5.146084 -0.924720 -0.039679 0.002820 0.186820 6.948965 7.689523 1.850717 -0.111855 -0.000000 0.000000 48.213151 3.089737 -63.105559 -0.340751 0.000000 0.000000 33.020867 2.422872 8.165698 -0.213779 -0.000000 0.000000 -2.219446 -2.382548 3.419894 0.099312 -0.000000 -0.000000 8.897110 -3.696695 -1.472799 -0.000000 0.000000 -0.476468 -2.078232 6.255896 2.503418 -0.000000 0.000000 -0.378939 16.651597 -2.830569 4.658990 0.000000 -0.148968 -0.064553 -0.000001 -0.000002 0.000001 -0.099312 -0.000000 -0.000000 -4.646124 -6.422714 7.314567 -0.000000 0.000000 -0.476468 -15.676160 49.242242 20.911181 0.000000 0.000000 -0.378939 10.573045 4.597600 -15.311493 -0.000000 -0.148968 -0.064553 -0.000000 0.000007 -0.000000 
0.172706 0.257661 0.995897 -9.206948 0.663270 -4.878144 0.000000 -0.000000 0.081436 0.082015 -2.645565 3.556700 -0.000000 -0.000000 0.206037 2.257596 -5.510541 -7.383589 -0.000000 -0.000000 0.206037 2.671101 17.702848 -17.033418 -0.000000 -0.000000 0.109243 20.552958 3.925940 2.738945 0.039631 0.002820 0.186820 3.803974 12.139589 -2.752346 0.111855 -0.000000 0.000000 -38.721340 13.653794 72.429375 0.340751 -0.000000 0.000000 -12.129419 0.444141 -4.176095 0.213779 -0.000000 0.000000 -1.238259 -5.179984 -0.155296 -0.039679 0.002820 0.186820 6.440269 8.498969 1.921002 -0.111855 0.000000 0.000000 46.550522 2.039251 -63.408990 -0.340751 -0.000000 0.000000 32.455119 2.221915 7.628277 -0.213779 -0.000000 0.000000 -2.606083 -2.253106 3.932402 0.099312 -0.000000 0.000000 9.329822 -3.865386 -1.834300 0.000000 0.000000 -0.476468 -2.026158 7.435173 2.146256 -0.000000 0.000000 -0.378939 15.224063 -3.665683 3.757159 0.000000 -0.148968 -0.064553 -0.000001 0.000001 -0.000000 -0.099312 -0.000000 0.000000 -3.728478 -8.808694 6.716765 0.000000 0.000000 -0.476468 -19.306595 50.172866 23.658264 -0.000000 0.000000 -0.378939 9.776168 1.811698 -13.126772 0.000000 -0.148968 -0.064553 -0.000002 0.000002 -0.000000 
0.170370 0.246652 0.997328 -9.486285 0.855954 -4.347617 -0.000000 -0.000000 0.081436 0.061891 -2.415102 2.941046 -0.000000 -0.000000 0.206037 1.742659 -5.338119 -6.531546 0.000000 -0.000000 0.206037 2.747449 17.773272 -17.443554 -0.000000 -0.000000 0.109243 20.988297 4.068196 3.769423 0.039631 0.002820 0.186820 3.857699 12.218976 -2.444001 0.111855 -0.000000 -0.000000 -40.031165 12.067856 70.473141 0.340751 -0.000000 0.000000 -12.155493 0.363383 -3.409440 0.213779 -0.000000 0.000000 -1.299523 -2.291079 0.230516 -0.039679 0.002820 0.186820 6.307452 8.746893 1.789227 -0.111855 0.000000 -0.000000 45.217925 2.450091 -64.071395 -0.340751 0.000000 0.000000 31.740360 2.177829 7.654316 -0.213779 0.000000 0.000000 -2.282337 -3.997626 4.978281 0.099312 -0.000000 -0.000000 8.736954 -3.319718 -2.267506 -0.000000 0.000000 -0.476468 -1.568162 7.276224 1.957604 -0.000000 0.000000 -0.378939 14.366927 -3.678945 2.664437 -0.000000 -0.148968 -0.064553 -0.000000 -0.000002 0.000000 -0.099312 -0.000000 -0.000000 -3.631731 -10.851915 6.293447 -0.000000 0.000000 -0.476468 -22.017024 49.705322 25.088371 -0.000000 0.000000 -0.378939 7.894759 -0.855284 -11.395244 -0.000000 -0.148968 -0.064553 -0.000002 0.000004 0.000002 
0.169238 0.234615 0.999125 -9.760128 0.946049 -4.030565 0.000000 -0.000000 0.081436 0.048883 -2.324316 2.414241 -0.000000 -0.000000 0.206037 1.357263 -5.023207 -5.830439 0.000000 -0.000000 0.206037 2.917467 18.258144 -18.013929 0.000000 -0.000000 0.109243 21.339847 3.820900 5.126111 0.039631 0.002820 0.186820 3.091254 11.855987 -2.140369 0.111855 0.000000 0.000000 -42.772198 11.493691 70.109071 0.340751 0.000000 0.000000 -12.179864 0.454579 -4.256396 0.213779 -0.000000 0.000000 -1.183967 -1.334898 0.478875 -0.039679 0.002820 0.186820 6.329514 8.965583 1.405681 -0.111855 0.000000 0.000000 43.910128 3.529658 -64.318792 -0.340751 -0.000000 0.000000 30.914952 2.030396 7.337603 -0.213779 0.000000 0.000000 -2.044705 -4.942731 5.437786 0.099312 -0.000000 -0.000000 7.974064 -2.321113 -2.322531 -0.000000 0.000000 -0.476468 -0.738850 6.621608 1.550071 -0.000000 0.000000 -0.378939 14.145436 -3.871668 2.134251 0.000000 -0.148968 -0.064553 0.000000 0.000002 -0.000001 -0.099312 -0.000000 0.000000 -4.112160 -12.553468 6.128855 0.000000 0.000000 -0.476468 -21.298584 48.607953 23.912730 -0.000000 0.000000 -0.378939 5.060677 -3.279073 -10.131542 -0.000000 -0.148968 -0.064553 -0.000000 -0.000002 0.000002 
0.166710 0.222282 1.001310 -9.751316 1.093531 -3.644446 0.000000 -0.000000 0.081436 0.045450 -2.322601 2.246435 -0.000000 -0.000000 0.206037 0.585646 -4.669331 -5.816623 0.000000 -0.000000 0.206037 2.937320 18.196812 -18.195568 -0.000000 -0.000000 0.109243 22.087372 3.952799 5.809893 0.039631 0.002820 0.186820 3.359803 12.006825 -2.117625 0.111855 -0.000000 -0.000000 -44.204253 9.355489 68.798426 0.340751 -0.000000 0.000000 -12.097800 0.439602 -4.144299 0.213779 -0.000000 0.000000 -1.224146 1.023897 -0.584013 -0.039679 0.002820 0.186820 6.166537 9.046138 1.321049 -0.111855 0.000000 0.000000 43.509193 4.989523 -64.540076 -0.340751 -0.000000 0.000000 30.136529 1.707020 6.338781 -0.213779 -0.000000 0.000000 -2.575219 -7.528275 9.157277 0.099312 -0.000000 -0.000000 7.157608 -1.427435 -2.602736 -0.000000 0.000000 -0.476468 0.002794 5.989228 1.267549 0.000000 0.000000 -0.378939 14.335343 -3.804940 1.984869 -0.000000 -0.148968 -0.064553 -0.000000 -0.000003 0.000000 -0.099312 -0.000000 -0.000000 -4.768579 -13.816277 5.674313 0.000000 0.000000 -0.476468 -18.739597 46.578871 21.223978 -0.000000 0.000000 -0.378939 2.887559 -5.515891 -8.886866 0.000000 -0.148968 -0.064553 -0.000002 -0.000002 0.000001 
0.163769 0.211490 1.003378 -9.944256 1.614543 -3.341569 -0.000000 0.000000 0.081436 0.046516 -2.265336 2.357273 0.000000 -0.000000 0.206037 -0.163491 -4.840418 -6.160119 -0.000000 -0.000000 0.206037 2.996602 18.305382 -18.446673 0.000000 0.000000 0.109243 22.757909 4.096004 6.678530 0.039631 0.002820 0.186820 3.382373 11.419379 -2.192978 0.111855 0.000000 -0.000000 -44.592113 7.520418 68.103529 0.340751 -0.000000 0.000000 -12.419003 0.385140 -3.536318 0.213779 -0.000000 0.000000 -0.892815 2.449719 -2.867309 -0.039679 0.002820 0.186820 6.329084 9.097335 1.241590 -0.111855 0.000000 0.000000 43.204539 6.653864 -64.722640 -0.340751 -0.000000 0.000000 28.675750 1.482350 5.799234 -0.213779 0.000000 -0.000000 -2.197602 -7.875686 9.358614 0.099312 0.000000 0.000000 7.133053 -0.990736 -2.864770 -0.000000 0.000000 -0.476468 -0.032596 5.466442 1.167917 0.000000 0.000000 -0.378939 15.396061 -3.683045 2.542249 -0.000000 -0.148968 -0.064553 0.000000 0.000002 -0.000000 -0.099312 0.000000 0.000000 -5.659960 -15.532250 4.907721 0.000000 0.000000 -0.476468 -14.250116 44.292049 17.904767 0.000000 0.000000 -0.378939 -0.612000 -7.002182 -10.085561 0.000000 -0.148968 -0.064553 -0.000001 -0.000001 -0.000000 
0.161171 0.199080 1.004863 -10.393540 1.790776 -3.144829 0.000000 -0.000000 0.081436 0.040159 -1.929964 2.389481 -0.000000 -0.000000 0.206037 -0.461170 -5.097216 -6.498522 0.000000 -0.000000 0.206037 2.977840 18.273534 -18.365045 0.000000 0.000000 0.109243 23.516505 4.224239 7.063456 0.039631 0.002820 0.186820 3.251179 10.971010 -2.275890 0.111855 -0.000000 0.000000 -45.092847 6.101036 67.765414 0.340751 -0.000000 0.000000 -13.925602 0.489074 -4.000653 0.213779 -0.000000 0.000000 -0.304093 2.008253 -4.803232 -0.039679 0.002820 0.186820 6.250401 9.219760 1.439630 -0.111855 -0.000000 -0.000000 43.352447 8.297062 -65.080146 -0.340751 -0.000000 -0.000000 26.506631 1.292070 5.486203 -0.213779 -0.000000 0.000000 -1.524059 -7.581200 7.641099 0.099312 -0.000000 0.000000 7.704457 0.032454 -3.079342 0.000000 0.000000 -0.476468 0.262974 4.673837 1.077044 0.000000 0.000000 -0.378939 14.963917 -3.708306 1.981640 -0.000000 -0.148968 -0.064553 0.000001 0.000002 -0.000001 -0.099312 -0.000000 -0.000000 -4.276218 -16.231067 4.900129 0.000000 0.000000 -0.476468 -11.183244 40.830102 14.471492 0.000000 0.000000 -0.378939 -3.008730 -8.461869 -10.712616 0.000000 -0.148968 -0.064553 -0.000001 -0.000002 -0.000000 
